HIERARCHY
ROOT joint_Root
{
	OFFSET 0.0 0.0 0.0
	CHANNELS 6 Xposition Yposition Zposition Zrotation Xrotation Yrotation 
	JOINT Hips
	{
		OFFSET 4.5925 91.4895 -427.239
		CHANNELS 6 Xposition Yposition Zposition Zrotation Xrotation Yrotation 
		JOINT Spine
		{
			OFFSET 15.7357 0.0 0.0
			CHANNELS 6 Xposition Yposition Zposition Zrotation Xrotation Yrotation 
			JOINT Chest
			{
				OFFSET 8.98455 -0.406207 0.0
				CHANNELS 6 Xposition Yposition Zposition Zrotation Xrotation Yrotation 
				JOINT Neck
				{
					OFFSET 16.3773 0.0 0.0
					CHANNELS 6 Xposition Yposition Zposition Zrotation Xrotation Yrotation 
					JOINT Head
					{
						OFFSET 6.45672 0.0 0.0
						CHANNELS 6 Xposition Yposition Zposition Zrotation Xrotation Yrotation 
						End Site
						{
							OFFSET 0.0 0.0 0.0
						}
					}
				}
				JOINT Shoulder_L
				{
					OFFSET 12.9942 -0.242716 4.98039
					CHANNELS 6 Xposition Yposition Zposition Zrotation Xrotation Yrotation 
					JOINT UpperArm_L
					{
						OFFSET 5.34809 0.0 0.0
						CHANNELS 6 Xposition Yposition Zposition Zrotation Xrotation Yrotation 
						JOINT LowerArm_L
						{
							OFFSET 24.3286 1.87007e-05 0.0
							CHANNELS 6 Xposition Yposition Zposition Zrotation Xrotation Yrotation 
							JOINT Hand_L
							{
								OFFSET 22.2916 0.0 0.0
								CHANNELS 6 Xposition Yposition Zposition Zrotation Xrotation Yrotation 
								End Site
								{
									OFFSET 0.0 0.0 0.0
								}
							}
						}
					}
				}
				JOINT Shoulder_R
				{
					OFFSET 12.9945 -0.242716 -4.98039
					CHANNELS 6 Xposition Yposition Zposition Zrotation Xrotation Yrotation 
					JOINT UpperArm_R
					{
						OFFSET -5.34813 0.0 0.0
						CHANNELS 6 Xposition Yposition Zposition Zrotation Xrotation Yrotation 
						JOINT LowerArm_R
						{
							OFFSET -24.3289 0.000322201 0.0
							CHANNELS 6 Xposition Yposition Zposition Zrotation Xrotation Yrotation 
							JOINT Hand_R
							{
								OFFSET -22.2915 -0.000108084 0.0
								CHANNELS 6 Xposition Yposition Zposition Zrotation Xrotation Yrotation 
								End Site
								{
									OFFSET 0.0 0.0 0.0
								}
							}
						}
					}
				}
			}
		}
		JOINT UpperLeg_L
		{
			OFFSET -2.19248 -6.46944 0.0
			CHANNELS 6 Xposition Yposition Zposition Zrotation Xrotation Yrotation 
			JOINT LowerLeg_L
			{
				OFFSET 39.0811 0.0 -1.23785e-05
				CHANNELS 6 Xposition Yposition Zposition Zrotation Xrotation Yrotation 
				JOINT Foot_L
				{
					OFFSET 40.9854 0.0 -1.26872e-05
					CHANNELS 6 Xposition Yposition Zposition Zrotation Xrotation Yrotation 
					JOINT Toes_L
					{
						OFFSET 11.7543 0.0 0.0
						CHANNELS 6 Xposition Yposition Zposition Zrotation Xrotation Yrotation 
						End Site
						{
							OFFSET 0.0 0.0 0.0
						}
					}
				}
			}
		}
		JOINT UpperLeg_R
		{
			OFFSET -2.19251 6.46944 0.0
			CHANNELS 6 Xposition Yposition Zposition Zrotation Xrotation Yrotation 
			JOINT LowerLeg_R
			{
				OFFSET -39.0811 -0.00228153 -0.0401928
				CHANNELS 6 Xposition Yposition Zposition Zrotation Xrotation Yrotation 
				JOINT Foot_R
				{
					OFFSET -40.9854 0.0 0.0
					CHANNELS 6 Xposition Yposition Zposition Zrotation Xrotation Yrotation 
					JOINT Toes_R
					{
						OFFSET -11.7543 0.0 0.0
						CHANNELS 6 Xposition Yposition Zposition Zrotation Xrotation Yrotation 
						End Site
						{
							OFFSET 0.0 0.0 0.0
						}
					}
				}
			}
		}
	}
}
MOTION
Frames:	5
Frame Time:	0.0333333
0.000000 0.000000 0.000000 0.000000 0.000000 -0.000000 -0.276886 90.375200 -5.916580 88.872700 -4.276190 9.865570 15.735700 0.000005 -0.000001 89.579000 76.065400 -90.167300 8.984550 -0.406207 -0.000000 20.101400 -0.263133 -1.133700 16.377300 -0.000001 -0.000001 11.706800 -2.027850 1.466470 6.456720 -0.000001 -0.000000 -11.670500 -1.417360 1.883550 12.994200 -0.242716 4.980390 -88.195800 -5.225040 -70.920200 5.348090 -0.000007 -0.000001 -82.942900 -15.613600 -81.815000 24.328600 0.000019 0.000005 49.056900 -15.943000 -103.404000 22.291600 -0.000001 0.000005 14.852900 4.920520 8.965980 12.994500 -0.242716 -4.980390 90.232900 -0.984125 -76.685800 -5.348130 -0.000001 -0.000004 -76.004700 -16.092400 -81.393100 -24.328900 0.000322 -0.000009 24.606400 -7.843970 -106.594000 -22.291500 -0.000108 -0.000004 26.808700 5.202350 2.660140 -2.192480 -6.469440 -0.000000 -174.283000 -14.531100 -6.284050 39.081100 -0.000007 -0.000012 -0.165249 0.237468 34.833500 40.985400 -0.000006 -0.000013 0.476468 4.586470 -68.305400 11.754300 -0.000000 0.000003 -0.000085 -0.000899 -16.612200 -2.192510 6.469440 -0.000001 176.597000 19.081700 174.457000 -39.081100 -0.002282 -0.040193 -0.055871 0.087624 34.027200 -40.985400 0.000008 0.000006 6.457300 12.870600 -69.282700 -11.754300 -0.000006 -0.000006 -0.002746 -0.037695 -18.106000
0.000000 0.000000 0.000000 0.000000 0.000000 -0.000000 -0.273781 90.383300 -5.874750 88.875200 -4.309930 9.857640 15.735700 0.000005 -0.000001 89.566300 76.069000 -90.154600 8.984550 -0.406207 -0.000000 20.094200 -0.269117 -1.132610 16.377300 -0.000001 -0.000001 11.760400 -2.043630 1.500960 6.456720 -0.000001 -0.000000 -11.544700 -1.421010 1.813630 12.994200 -0.242716 4.980390 -88.186700 -5.256480 -70.936600 5.348090 -0.000007 -0.000001 -83.021200 -15.642600 -81.776000 24.328600 0.000019 0.000005 49.059900 -15.878300 -103.351000 22.291600 -0.000001 0.000005 14.754800 4.920760 8.961070 12.994500 -0.242716 -4.980390 90.237500 -1.005440 -76.709600 -5.348130 -0.000001 -0.000004 -75.958700 -16.114000 -81.371500 -24.328900 0.000322 -0.000009 24.769700 -7.852880 -106.494000 -22.291500 -0.000108 -0.000004 26.886800 5.201230 2.688330 -2.192480 -6.469440 -0.000000 -174.274000 -14.532000 -6.223380 39.081100 -0.000007 -0.000012 -0.167990 0.241824 34.787200 40.985400 -0.000006 -0.000013 0.468718 4.593170 -68.324400 11.754300 -0.000000 0.000003 -0.000091 -0.000949 -16.614000 -2.192510 6.469440 -0.000001 176.586000 19.079500 174.496000 -39.081100 -0.002282 -0.040193 -0.054020 0.084989 33.994400 -40.985400 0.000008 0.000006 6.530850 12.901200 -69.315700 -11.754300 -0.000006 -0.000006 -0.002892 -0.039374 -18.174300
0.000000 0.000000 0.000000 0.000000 0.000000 -0.000000 -0.272419 90.382900 -5.837410 88.866700 -4.305720 9.860710 15.735700 0.000005 -0.000001 89.563600 76.064500 -90.143000 8.984550 -0.406207 -0.000000 20.103200 -0.269506 -1.114660 16.377300 -0.000001 -0.000001 11.842900 -2.060980 1.502230 6.456720 -0.000001 -0.000000 -11.381800 -1.463730 1.785140 12.994200 -0.242716 4.980390 -88.185900 -5.267050 -70.964500 5.348090 -0.000007 -0.000001 -83.051200 -15.668700 -81.738000 24.328600 0.000019 0.000005 49.214100 -15.864000 -103.270000 22.291600 -0.000001 0.000005 14.688800 4.922020 8.935620 12.994500 -0.242716 -4.980390 90.247700 -1.046850 -76.684100 -5.348130 -0.000001 -0.000004 -75.949100 -16.167300 -81.359400 -24.328900 0.000322 -0.000009 24.664500 -7.796500 -106.458000 -22.291500 -0.000108 -0.000004 26.848400 5.201070 2.692230 -2.192480 -6.469440 -0.000000 -174.263000 -14.517100 -6.198880 39.081100 -0.000007 -0.000012 -0.168999 0.243247 34.790500 40.985400 -0.000006 -0.000013 0.458404 4.567560 -68.347600 11.754300 -0.000000 0.000003 -0.000088 -0.000919 -16.612900 -2.192510 6.469440 -0.000001 176.594000 19.093000 174.527000 -39.081100 -0.002282 -0.040193 -0.049277 0.077952 33.995500 -40.985400 0.000008 0.000006 6.583940 12.880800 -69.355400 -11.754300 -0.000006 -0.000006 -0.002666 -0.036762 -18.068100
0.000000 0.000000 0.000000 0.000000 0.000000 -0.000000 -0.264479 90.373000 -5.798770 88.871700 -4.323500 9.861050 15.735700 0.000005 -0.000001 89.533800 76.049900 -90.112800 8.984550 -0.406207 -0.000000 20.132200 -0.284044 -1.111380 16.377300 -0.000001 -0.000001 11.889300 -2.073570 1.517450 6.456720 -0.000001 -0.000000 -11.281000 -1.455260 1.736370 12.994200 -0.242716 4.980390 -88.202300 -5.201020 -70.902800 5.348090 -0.000007 -0.000001 -83.035600 -15.686000 -81.769000 24.328600 0.000019 0.000005 48.955800 -15.735100 -103.285000 22.291600 -0.000001 0.000005 14.796000 4.923480 8.906050 12.994500 -0.242716 -4.980390 90.251400 -1.057700 -76.630200 -5.348130 -0.000001 -0.000004 -75.913500 -16.146000 -81.392400 -24.328900 0.000322 -0.000009 24.662700 -7.770710 -106.408000 -22.291500 -0.000108 -0.000004 26.848400 5.202420 2.658470 -2.192480 -6.469440 -0.000000 -174.270000 -14.512100 -6.187570 39.081100 -0.000007 -0.000012 -0.169061 0.242955 34.832600 40.985400 -0.000006 -0.000013 0.455758 4.542660 -68.400500 11.754300 -0.000000 0.000003 -0.000093 -0.000968 -16.614800 -2.192510 6.469440 -0.000001 176.575000 19.061300 174.528000 -39.081100 -0.002282 -0.040193 -0.051130 0.080551 34.044300 -40.985400 0.000008 0.000006 6.588400 12.868500 -69.404700 -11.754300 -0.000006 -0.000006 -0.002702 -0.037185 -18.085300
0.000000 0.000000 0.000000 0.000000 0.000000 -0.000000 -0.266073 90.367400 -5.757720 88.880000 -4.339380 9.883530 15.735700 0.000005 -0.000001 89.515700 76.025600 -90.094800 8.984550 -0.406207 -0.000000 20.180600 -0.293246 -1.109680 16.377300 -0.000001 -0.000001 11.938800 -2.074390 1.497690 6.456720 -0.000001 -0.000000 -11.270800 -1.478240 1.731150 12.994200 -0.242716 4.980390 -88.211100 -5.164480 -70.864300 5.348090 -0.000007 -0.000001 -83.017300 -15.700300 -81.760700 24.328600 0.000019 0.000005 49.041200 -15.773100 -103.276000 22.291600 -0.000001 0.000005 14.800400 4.922380 8.928310 12.994500 -0.242716 -4.980390 90.252800 -1.062010 -76.607200 -5.348130 -0.000001 -0.000004 -75.833700 -16.193900 -81.384500 -24.328900 0.000322 -0.000009 24.689200 -7.799610 -106.447000 -22.291500 -0.000108 -0.000004 26.839400 5.201080 2.692040 -2.192480 -6.469440 -0.000000 -174.266000 -14.533900 -6.142720 39.081100 -0.000007 -0.000012 -0.168988 0.242686 34.850800 40.985400 -0.000006 -0.000013 0.457746 4.544790 -68.438400 11.754300 -0.000000 0.000003 -0.000091 -0.000952 -16.614200 -2.192510 6.469440 -0.000001 176.553000 19.022800 174.567000 -39.081100 -0.002282 -0.040193 -0.052299 0.082202 34.070300 -40.985400 0.000008 0.000006 6.579750 12.851900 -69.444100 -11.754300 -0.000006 -0.000006 -0.002575 -0.035694 -18.024600
